<?xml version="1.0" encoding="UTF-8" standalone="no"?>
<!-- Created with Inkscape (http://www.inkscape.org/) -->

<svg
   version="1.1"
   id="svg1"
   width="512"
   height="512"
   viewBox="0 0 512 512"
   sodipodi:docname="fuelup_icon.svg"
   xml:space="preserve"
   inkscape:export-filename="../scripts/fuelup/docs/icon_512.png"
   inkscape:export-xdpi="96"
   inkscape:export-ydpi="96"
   inkscape:version="1.4.2 (ebf0e940d0, 2025-05-08)"
   xmlns:inkscape="http://www.inkscape.org/namespaces/inkscape"
   xmlns:sodipodi="http://sodipodi.sourceforge.net/DTD/sodipodi-0.dtd"
   xmlns="http://www.w3.org/2000/svg"
   xmlns:svg="http://www.w3.org/2000/svg"><defs
     id="defs1" /><sodipodi:namedview
     id="namedview1"
     pagecolor="#ffffff"
     bordercolor="#000000"
     borderopacity="0.25"
     inkscape:showpageshadow="2"
     inkscape:pageopacity="0.0"
     inkscape:pagecheckerboard="0"
     inkscape:deskcolor="#d1d1d1"
     inkscape:zoom="0.88388348"
     inkscape:cx="170.837"
     inkscape:cy="401.63665"
     inkscape:window-width="2560"
     inkscape:window-height="1342"
     inkscape:window-x="0"
     inkscape:window-y="27"
     inkscape:window-maximized="1"
     inkscape:current-layer="g1" /><g
     inkscape:groupmode="layer"
     inkscape:label="Image"
     id="g1"><rect
       style="fill:#f9f9f9;stroke-width:3.77953;stroke-linecap:round;stroke-linejoin:bevel;paint-order:stroke fill markers"
       id="rect1"
       width="411.819"
       height="411.819"
       x="50.0905"
       y="50.0905"
       rx="0.5"
       ry="0.5" /><path
       style="fill:#216cba;stroke:none;stroke-width:0.383029"
       d="m 256.97948,128.79721 c -5.68074,-8.4973 -17.1519,2.4481 -24.89689,0.9711 -8.70249,-1.6596 -14.15199,-11.2039 -23.33484,-12.1704 -8.17449,-0.8604 -14.08324,4.3161 -19.94741,9.2231 -10.54758,8.8259 -22.75158,17.0084 -31.91682,27.3144 -9.27903,10.434 4.75708,19.6434 -1.10986,29.052 -8.36843,13.4201 -18.79035,26.2211 -28.26344,38.8969 -4.21557,5.6408 -10.20954,11.7621 -13.11042,18.1744 -1.86799,4.1292 2.06728,7.3986 0.81009,11.1078 -4.39056,12.9542 -10.80049,24.0979 -13.00193,37.9199 -5.924874,37.2002 11.38796,71.9339 37.36453,97.5207 6.39593,6.3 14.09977,16.7005 22.03233,20.8195 2.26513,1.1762 4.06502,-1.5631 5.33314,-3.049 3.7246,-4.3642 7.52198,-8.6671 11.25237,-13.0274 11.37923,-13.3008 22.66881,-26.6852 34.22821,-39.83 4.01758,-4.5686 8.57671,-12.7869 13.92353,-15.7176 3.11615,-1.7081 8.98211,7.1368 10.85491,9.2062 8.41283,9.2959 17.04063,18.4072 25.56846,27.5981 1.67974,1.8103 6.30551,8.8288 9.12246,8.0135 2.49911,-0.7232 4.75239,-4.5974 6.34231,-6.5015 4.9274,-5.901 9.86878,-11.7847 14.86911,-17.6244 18.75047,-21.898 37.26839,-43.9891 56.02039,-65.8858 5.81396,-6.7889 11.6352,-13.5705 17.48222,-20.3316 1.47451,-1.7049 4.40705,-6.638 6.86434,-6.6605 2.36011,-0.021 5.58376,3.7664 7.23163,5.2151 5.48023,4.8179 11.09474,10.1737 17.23631,14.1263 3.27513,-13.3141 3.63464,-27.7829 5.50463,-41.3672 2.61436,-18.9915 6.88479,-38.6765 7.51836,-57.8374 -31.837,8.8589 -63.60831,19.1287 -94.99123,29.4933 3.86994,5.7276 11.5923,10.6186 16.85328,15.1211 1.59203,1.3625 6.18378,3.8526 6.37729,6.1381 0.13961,1.6491 -2.40309,3.6618 -3.36572,4.7874 -3.39931,3.9749 -6.77984,7.9553 -10.24614,11.873 -13.5428,15.3062 -26.39918,31.2233 -39.71296,46.7274 -3.62319,4.2193 -7.2126,8.4713 -10.89002,12.6434 -1.07984,1.2251 -2.79098,4.1789 -4.64496,4.1789 -3.38735,0 -9.1344,-8.4195 -11.40496,-10.883 -10.50848,-11.4018 -20.91232,-22.9027 -31.44554,-34.2811 h -0.38303 c -19.266,23.9735 -40.35181,46.6074 -60.22381,70.0942 -5.18932,6.1333 -10.33304,12.33 -15.6319,18.3678 -1.54946,1.7656 -4.07556,5.9491 -6.47583,6.457 -2.00323,0.4239 -4.08744,-3.2211 -5.12161,-4.5143 -4.34256,-5.43 -7.88501,-11.4618 -11.06966,-17.6291 -14.22668,-27.551 -9.67015,-55.8098 2.76552,-82.7343 6.31466,1.8348 9.90074,-1.0173 12.25694,-6.8945 15.3678,8.9519 33.10881,31.2398 52.47499,20.7364 7.14191,-3.8735 11.57073,-11.7437 16.35535,-18.0556 8.89253,-11.7312 18.06159,-23.3193 26.69185,-35.2383 4.20354,-5.8054 11.11186,-11.3363 13.1472,-18.3854 2.32253,-8.0438 -0.57248,-17.8738 -1.0382,-26.046 -0.21465,-3.7667 -1.17196,-7.9152 1.71118,-10.9652 3.2852,-3.4753 8.60337,-4.4919 12.16048,-7.7714 2.61288,-2.4091 1.56414,-6.2823 3.93249,-8.3828 3.19821,-2.8365 8.31418,-4.5697 12.07212,-6.626 9.36227,-5.1228 20.62796,-13.3464 31.40839,-14.4937 13.70612,-1.4586 28.34128,-1.0898 42.13359,-1.1695 3.97565,-0.023 13.11553,1.3793 16.05516,-1.7483 3.46554,-3.6872 3.72737,-17.3252 -1.59527,-19.5476 -5.32254,-2.2223 -17.05966,-0.5239 -22.88692,-0.056 -14.28786,1.1478 -29.6435,-1.3994 -43.66532,1.8032 -15.89192,3.6298 -31.01142,14.7992 -45.58047,21.8446 m -41.36714,71.6265 c -7.72465,-1.0213 -16.67621,-0.6681 -22.96292,4.4801 -5.62,4.6023 -7.32907,11.9253 -9.48104,18.5016 -4.07687,12.4588 -8.08356,22.036 -7.39108,35.2387 -5.6689,-4.0045 -11.27192,-8.1463 -16.85432,-12.2745 -1.67026,-1.2351 -5.0392,-3.1229 -5.38742,-5.3755 -0.67107,-4.3412 10.18092,-15.1052 12.7755,-18.7378 10.08031,-14.1129 21.98813,-37.9652 42.40675,-26.3719 2.39488,1.3598 4.92105,2.5937 6.89453,4.5393 m -11.8735,12.1048 c 2.10127,-0.4374 4.37694,-0.2316 6.51109,-0.2309 23.21026,0.01 -2.26071,27.8207 -8.42877,36.0047 -2.64679,3.5119 -6.34234,10.62 -11.11076,11.3348 -6.16422,0.924 -5.8102,-6.5681 -4.74308,-10.5687 2.48112,-9.3016 6.05129,-18.6605 9.66406,-27.5781 1.56869,-3.8721 3.65207,-8.0345 8.10746,-8.9618 z"
       id="path1" /></g></svg>
